<?xml version="1.0" encoding="utf-8"?>
<!-- Generator: Adobe Illustrator 27.0.0, SVG Export Plug-In . SVG Version: 6.00 Build 0)  -->
<svg version="1.1" xmlns="http://www.w3.org/2000/svg" xmlns:xlink="http://www.w3.org/1999/xlink" x="0px" y="0px"
	 viewBox="0 0 630 507.57" style="enable-background:new 0 0 630 507.57;" xml:space="preserve">
<style type="text/css">
	.st0{fill:#B5AB9A;}
	.st1{display:none;}
	.st2{display:inline;fill:#C6BBA5;}
	.st3{display:inline;fill:none;stroke:#756B5E;stroke-width:2;stroke-linecap:round;stroke-linejoin:round;stroke-miterlimit:10;}
</style>
<g id="뒤">
	<g>
		<path class="st0" d="M330.65,3.91c-9.78-5.21-21.51-5.21-31.29,0L18.21,153.86C7,159.84,0,171.51,0,184.21v295.6
			c0,15.33,12.43,27.76,27.76,27.76h574.48c15.33,0,27.76-12.43,27.76-27.76v-295.6c0-12.7-7-24.37-18.21-30.35L330.65,3.91z"/>
	</g>
</g>
<g id="앞" class="st1">
	<path class="st2" d="M302.97,332.39L9.6,170.3c-3.88-2.14-8.6,0.72-8.6,5.23v311.17c0,12.66,18.09,23.86,29,17.84L302.97,347.9
		C309,344.56,309,335.72,302.97,332.39z"/>
	<path class="st2" d="M327.03,332.39L620.4,170.3c3.88-2.14,8.6,0.72,8.6,5.23v311.17c0,12.66-18.09,23.86-29,17.84L327.03,347.9
		C321,344.56,321,335.72,327.03,332.39z"/>
	<path class="st2" d="M296.58,320.4L15.52,483.62c-10.87,6.32-6.39,22.95,6.18,22.95h587.26c12.58,0,17.06-16.64,6.18-22.95
		L334.09,320.4C322.49,313.67,308.17,313.67,296.58,320.4z"/>
	<line class="st3" x1="54" y1="461.57" x2="288" y2="325.57"/>
	<line class="st3" x1="576" y1="461.57" x2="342" y2="325.57"/>
</g>
</svg>
